<svg xmlns="http://www.w3.org/2000/svg" shape-rendering="geometricPrecision" text-rendering="geometricPrecision" image-rendering="optimizeQuality" fill-rule="evenodd" clip-rule="evenodd" viewBox="0 0 512 511.999"><path fill="#FFD337" d="M74.979 74.981c99.976-99.975 262.065-99.975 362.04 0 99.975 99.973 99.975 262.064 0 362.037-99.975 99.975-262.064 99.975-362.04 0-99.972-99.973-99.972-262.064 0-362.037z"/><path fill="#292D35" fill-rule="nonzero" d="M420.978 272.224c-.616 27.159-8.181 53.824-21.964 77.251-35.928 61.067-108.846 91.345-178.013 72.816-54.798-14.685-97.194-57.373-112.082-111.25a158.266 158.266 0 01-5.675-39.902c-.092-7.945 6.273-14.464 14.218-14.556 2.255-.027 4.398.47 6.308 1.374 46.292 21.899 92.413 33.139 138.35 33.293 45.956.157 92.035-10.741 138.225-33.082 7.165-3.457 15.783-.452 19.24 6.712a14.365 14.365 0 011.393 7.344z"/><path fill="#565656" d="M406.608 271.145c-.846 49.052-26.658 96.456-72.24 122.773-69.11 39.901-157.482 16.221-197.379-52.889-12.772-22.122-19.021-46.212-19.359-70.059 96.326 45.622 192.652 46.77 288.978.175z"/><path fill="#292D35" fill-rule="nonzero" d="M373.121 380.921c-4.994 5.136-10.276 9.892-15.822 14.203-5.322 4.14-11.23 8.104-17.7 11.841l.015.025c-31.098 17.956-65.842 23.859-98.807 19.158-33.662-4.798-65.515-20.678-89.796-46.071-5.483-5.765-5.257-14.886.507-20.37l.059-.054a156.178 156.178 0 0115.026-13.108 157.366 157.366 0 0116.917-11.283c31.141-17.978 65.902-24.032 98.982-19.584 33.807 4.547 65.879 20.088 90.562 45.1 5.503 5.593 5.501 14.545.057 20.143z"/><path fill="#FB3939" d="M362.794 370.69a139.923 139.923 0 01-30.405 23.643c-56.958 32.885-127.428 21.138-170.941-24.377a142.223 142.223 0 0129.292-22.413c57.172-33.008 127.751-21.744 172.054 23.147z"/><path fill="#F44336" d="M385.39 62.73c56.444-94.822 220.722 28.349-.221 161.285-222.835-142.388-44.097-259.156.221-161.285zm-260.816 0c56.443-94.822 220.723 28.349-.223 161.285-222.833-142.388-44.097-259.156.223-161.285z"/><path fill="#C62828" d="M424.713 31.173c63.341-16.915 137.148 80.137-28.145 185.759 122.145-97.034 82.645-174.69 28.145-185.759zm-260.817 0c63.341-16.915 137.15 80.137-28.146 185.759 122.148-97.034 82.645-174.69 28.146-185.759zm-96.561-4.299c21.065-2.099 43.297 7.756 55.985 33.298a87.197 87.197 0 011.53 5.017c4.562 14.844.04 21.489-5.57 21.882-7.853.551-8.752-6.427-10.808-11.965C98.188 47.412 83.508 32.057 65.177 27.4a59.476 59.476 0 012.158-.526zm260.815 0c21.068-2.099 43.298 7.756 55.985 33.298a87.179 87.179 0 011.533 5.017c4.562 14.844.04 21.489-5.573 21.882-7.85.551-8.749-6.427-10.808-11.965-10.284-27.694-24.964-43.049-43.292-47.706a58.816 58.816 0 012.155-.526z"/><path fill="#FF847A" d="M317.929 48.604c12.956-2.275 25.06 7.595 17.771 23.261-2.528 3.273-4.934 6.854-7.264 10.626-3.186 5.158-5.839 12.862-9.519 18.316-2.573 3.817-5.652 6.534-9.768 6.509-22.915-.146-18.596-53.906 8.78-58.712zm-260.818 0c12.959-2.275 25.061 7.595 17.772 23.261-2.529 3.273-4.935 6.854-7.265 10.626-3.183 5.158-5.836 12.862-9.516 18.316-2.576 3.817-5.655 6.534-9.77 6.509-22.915-.146-18.596-53.906 8.779-58.712z"/></svg>