<svg xmlns="http://www.w3.org/2000/svg" shape-rendering="geometricPrecision" text-rendering="geometricPrecision" image-rendering="optimizeQuality" fill-rule="evenodd" clip-rule="evenodd" viewBox="0 0 512 512.003"><circle fill="#FBD433" transform="matrix(2.64389 -.70843 .70843 2.6439 256 256.001)" r="93.504"/><path fill="#40270E" d="M118.958 278.463c69.505-2.157 212.529 1.216 274.081-.172 0 165.705-274.081 181.549-274.081.172z"/><path fill="red" d="M346.895 376.428c-26.317 21.027-60.766 31.989-94.903 32.143-33.202-.569-65.567-10.947-88.278-30.594 32.412-36.842 56.022-36.042 91.288-7.845 33.646-24.855 64.016-24.321 91.893 6.296z"/><path fill="#fff" d="M118.959 278.463c69.506-6.316 212.527-2.806 274.08-.172.786 58.938-273.259 58.213-274.08.172z"/><path fill="#C62828" fill-rule="nonzero" d="M159.355 61.22l63.123-7.413c15.4-1.922 25.548 15.763 16.207 28.123l-38.327 50.782 26.585 57.8c6.646 14.477-7.828 29.417-22.395 23.767l-59.472-20.541-46.801 43.143c-11.457 10.542-29.824 2.071-29.534-13.239l1.155-63.607-55.483-31.13c-13.764-7.721-11.131-28.341 4.083-32.432l60.209-18.325 12.464-62.397C94.217.715 114.134-3.755 123.035 9.187l36.32 52.033zm194.672 0l-63.122-7.413c-15.4-1.922-25.547 15.763-16.207 28.123l38.327 50.782-26.585 57.8c-6.646 14.477 7.828 29.417 22.396 23.767l59.472-20.541 46.801 43.143c11.456 10.542 29.824 2.071 29.533-13.239l-1.155-63.607 55.483-31.13c13.764-7.721 11.132-28.341-4.082-32.432l-60.21-18.325-12.464-62.397C419.167.715 399.249-3.755 390.349 9.187L354.027 61.22z"/><path fill="#F44336" fill-rule="nonzero" d="M359.712 73.958l-70.257-8.25c-4.98-.608-8.151 5.084-5.19 9l42.626 56.479-29.573 64.295c-2.139 4.656 2.52 9.459 7.204 7.636l66.671-23.019 52.004 47.991c3.683 3.402 9.581.623 9.487-4.259l-1.284-70.757 61.709-34.625c4.454-2.5 3.522-9.092-1.316-10.393l-67.486-20.57-13.862-69.391c-.984-4.947-7.446-6.181-10.25-2.109l-40.483 57.972zm-206.041 0l70.257-8.25c4.98-.608 8.151 5.084 5.191 9l-42.626 56.479 29.573 64.295c2.138 4.656-2.521 9.459-7.205 7.636l-66.671-23.019-52.004 47.991c-3.683 3.402-9.581.623-9.487-4.259l1.284-70.757-61.709-34.625c-4.453-2.5-3.522-9.092 1.316-10.393l67.486-20.57 13.863-69.391c.983-4.947 7.445-6.181 10.249-2.109l40.483 57.972z"/></svg>